<svg width="1078" height="722" viewBox="0 0 1078 722" fill="none" xmlns="http://www.w3.org/2000/svg">
<path d="M997.947 0C1016.96 0 1032.3 1.85523 1043.95 5.56574C1055.61 9.27623 1063.58 15.7696 1067.88 25.0458C1072.79 34.322 1075.55 42.6706 1076.16 50.0916C1077.39 56.8941 1078 67.4072 1078 81.6307V635.421C1078 649.645 1077.39 660.467 1076.16 667.888C1075.55 674.69 1072.79 682.73 1067.88 692.006C1062.97 700.664 1054.69 706.848 1043.03 710.559C1031.38 714.269 1015.74 716.124 996.106 716.124C949.485 716.124 923.721 700.973 918.814 670.671C893.05 700.355 857.164 715.197 811.156 715.197C755.947 715.197 705.646 691.078 660.252 642.842C614.858 593.987 592.161 536.475 592.161 470.305C592.161 407.226 614.858 351.26 660.252 302.405C706.259 253.55 756.561 229.123 811.156 229.123C856.55 229.123 891.823 244.583 916.973 275.504V80.7031C916.973 66.4796 917.28 55.9665 917.894 49.164C919.12 41.743 921.881 33.7036 926.175 25.0458C931.082 15.7696 939.364 9.27623 951.019 5.56574C962.674 1.85523 978.317 0 997.947 0ZM777.111 528.745C793.06 545.442 812.383 553.79 835.08 553.79C857.777 553.79 876.487 545.442 891.209 528.745C906.545 512.047 914.213 493.495 914.213 473.087C914.213 453.298 906.852 434.746 892.129 417.43C878.021 400.114 858.697 391.457 834.16 391.457C809.623 391.457 789.993 400.114 775.27 417.43C760.548 434.127 753.187 452.68 753.187 473.087C753.187 493.495 761.162 512.047 777.111 528.745Z" fill="#03A9F4"/>
<path d="M497.801 179.586C513.75 212.362 521.725 248.848 521.725 289.045C521.725 329.242 513.75 365.729 497.801 398.505C481.852 430.662 461.302 456.326 436.151 475.497C411.614 494.668 385.543 509.51 357.938 520.023C330.334 529.918 303.649 534.865 277.885 534.865H162.866V639.686C162.866 653.91 162.253 664.732 161.026 672.153C160.413 678.956 157.652 686.995 152.745 696.271C147.837 705.547 139.556 712.041 127.901 715.751C116.246 719.462 100.603 721.317 80.9731 721.317C65.0239 721.317 51.8349 719.771 41.4066 716.679C30.9782 713.587 23.004 709.876 17.4831 705.547C11.9622 701.218 7.66772 695.034 4.60056 686.995C2.14682 678.337 0.613433 671.225 0 665.66C0 659.475 0 650.508 0 638.759V123.928C0 109.705 0.306602 99.1915 0.920035 92.389C2.1469 84.968 5.21408 76.6194 10.1216 67.3432C15.0291 58.067 23.3104 51.5736 34.9656 47.8632C46.6209 44.1527 62.2633 42.2974 81.8932 42.2974H278.805C304.569 42.2974 330.947 47.5539 357.938 58.067C385.543 67.9616 411.614 82.4944 436.151 101.665C461.302 120.836 481.852 146.81 497.801 179.586ZM359.778 288.118C359.778 261.526 350.884 241.427 333.094 227.822C315.304 213.599 296.901 206.487 277.885 206.487H0V370.676H278.805C297.208 370.676 315.304 363.873 333.094 350.268C350.884 336.663 359.778 315.946 359.778 288.118Z" fill="#1976D2"/>
</svg>
