<svg width="404" height="69" viewBox="0 0 404 69" fill="none" xmlns="http://www.w3.org/2000/svg">
<g clip-path="url(#clip0_15_811)">
<path d="M46.3376 17.0261C47.8119 20.0526 48.549 23.4217 48.549 27.1334C48.549 30.8452 47.8119 34.2143 46.3376 37.2408C44.8634 40.2101 42.9639 42.5799 40.6391 44.3501C38.371 46.1203 35.9612 47.4908 33.4096 48.4616C30.858 49.3752 28.3915 49.8321 26.01 49.8321H15.3785V59.5111C15.3785 60.8245 15.3218 61.8238 15.2084 62.509C15.1516 63.1372 14.8965 63.8795 14.4429 64.7361C13.9893 65.5926 13.2238 66.1922 12.1465 66.5348C11.0691 66.8774 9.62324 67.0487 7.80878 67.0487C6.33454 67.0487 5.11544 66.906 4.15151 66.6205C3.18758 66.335 2.45049 65.9923 1.94018 65.5926C1.42986 65.1929 1.03291 64.6219 0.749403 63.8795C0.522596 63.0801 0.380859 62.4234 0.324158 61.9094C0.324158 61.3384 0.324158 60.5104 0.324158 59.4254V11.8868C0.324158 10.5734 0.352498 9.60264 0.4092 8.9745C0.522603 8.28926 0.806113 7.51836 1.25973 6.66181C1.71335 5.80526 2.47882 5.20567 3.55615 4.86305C4.63349 4.52043 6.07937 4.34912 7.89383 4.34912H26.0951C28.4766 4.34912 30.9147 4.8345 33.4096 5.80526C35.9612 6.71891 38.371 8.06084 40.6391 9.83105C42.9639 11.6013 44.8634 13.9997 46.3376 17.0261ZM33.5797 27.0478C33.5797 24.5923 32.7575 22.7365 31.1132 21.4802C29.4688 20.1668 27.7678 19.5101 26.01 19.5101H0.324158V34.6711H26.0951C27.7961 34.6711 29.4688 34.043 31.1132 32.7867C32.7575 31.5304 33.5797 29.6174 33.5797 27.0478Z" fill="#1976D2"/>
<path d="M52.4854 29.5318C52.4854 28.2184 52.5137 27.2477 52.5704 26.6195C52.6838 25.9343 52.939 25.192 53.3359 24.3925C53.7895 23.536 54.555 22.9364 55.6323 22.5938C56.7097 22.2511 58.1556 22.0798 59.97 22.0798C61.3876 22.0798 62.5782 22.2226 63.5421 22.5081C64.5627 22.7936 65.3 23.1362 65.7536 23.536C66.2639 23.9357 66.6325 24.5353 66.8593 25.3347C67.1428 26.0771 67.2844 26.7338 67.2844 27.3048C67.3411 27.8187 67.3696 28.6182 67.3696 29.7031V59.6824C67.3696 60.9958 67.3129 61.9951 67.1995 62.6804C67.1428 63.3085 66.8875 64.0509 66.4339 64.9074C66.037 65.7069 65.3 66.2779 64.2226 66.6205C63.1453 66.9631 61.6994 67.1344 59.885 67.1344C58.1272 67.1344 56.7097 66.9631 55.6323 66.6205C54.555 66.2779 53.7895 65.6783 53.3359 64.8218C52.939 63.9652 52.6838 63.2229 52.5704 62.5947C52.5137 61.9666 52.4854 60.9673 52.4854 59.5968V29.5318ZM59.885 15.9127C58.1272 15.9127 56.7097 15.7413 55.6323 15.3987C54.555 15.0561 53.7895 14.4565 53.3359 13.6C52.939 12.7434 52.6838 12.0011 52.5704 11.3729C52.5137 10.6877 52.4854 9.68835 52.4854 8.37497C52.4854 7.06159 52.5137 6.09084 52.5704 5.4627C52.6838 4.77746 52.939 4.03511 53.3359 3.23566C53.7895 2.37911 54.555 1.77953 55.6323 1.43691C56.7097 1.09428 58.1556 0.922974 59.97 0.922974C61.7278 0.922974 63.1453 1.09428 64.2226 1.43691C65.3 1.77953 66.037 2.37911 66.4339 3.23566C66.8875 4.09222 67.1428 4.86311 67.1995 5.54835C67.3129 6.17649 67.3696 7.14725 67.3696 8.46063C67.3696 9.77401 67.3129 10.7733 67.1995 11.4586C67.1428 12.0867 66.8875 12.8291 66.4339 13.6856C66.037 14.4851 65.3 15.0561 64.2226 15.3987C63.1453 15.7413 61.6994 15.9127 59.885 15.9127Z" fill="#1976D2"/>
<path d="M105.291 44.5211L114.732 54.1145C116.773 56.1702 117.794 57.8548 117.794 59.1682C117.794 60.7671 116.773 62.5658 114.732 64.5645C112.691 66.6202 110.876 67.648 109.289 67.648C108.041 67.648 106.397 66.6202 104.356 64.5645L95.1355 48.1697L85.559 64.5645C83.5178 66.6202 81.8734 67.648 80.626 67.648C79.095 67.648 77.2806 66.6202 75.1826 64.5645C73.1414 62.5658 72.1207 60.7671 72.1207 59.1682C72.1207 57.8548 73.1414 56.1702 75.1826 54.1145L84.6235 44.5211L75.1826 34.9278C73.1414 32.872 72.1207 31.1875 72.1207 29.8741C72.1207 28.2752 73.1414 26.4765 75.1826 24.4778C77.2806 22.365 79.095 21.3086 80.626 21.3086C81.8734 21.3086 83.5178 22.3365 85.559 24.3922L95.1355 41.6603L104.356 24.3922C106.397 22.3365 108.07 21.3086 109.374 21.3086C110.905 21.3086 112.691 22.3365 114.732 24.3922C116.773 26.4479 117.794 28.2752 117.794 29.8741C117.794 31.1875 116.773 32.872 114.732 34.9278L105.291 44.5211Z" fill="#1976D2"/>
<path d="M163.966 38.7825C163.966 42.5513 163.087 45.2923 161.329 47.0054C159.628 48.6614 157.729 49.4894 155.631 49.4894H135.473C135.473 51.0883 136.409 52.4302 138.28 53.5152C140.151 54.6002 142.164 55.1426 144.319 55.1426C145.85 55.1426 147.296 55.0284 148.657 54.8C150.017 54.5716 151.01 54.3432 151.633 54.1148L152.569 53.7722C153.93 53.144 155.064 52.8299 155.971 52.8299C157.786 52.8299 159.345 54.1148 160.649 56.6844C161.386 58.2262 161.755 59.5396 161.755 60.6246C161.755 65.7068 155.716 68.2479 143.639 68.2479C139.443 68.2479 135.7 67.5341 132.412 66.1065C129.18 64.6218 126.656 62.7088 124.842 60.3676C123.027 57.9693 121.667 55.4567 120.759 52.8299C119.909 50.2032 119.484 47.5193 119.484 44.7784C119.484 37.5833 121.78 31.8444 126.373 27.5617C131.022 23.2218 136.806 21.0519 143.724 21.0519C146.502 21.0519 149.054 21.4516 151.378 22.2511C153.703 22.9934 155.631 23.9927 157.162 25.249C158.693 26.4482 159.969 27.8472 160.989 29.4461C162.067 31.045 162.832 32.6439 163.286 34.2428C163.739 35.7846 163.966 37.2978 163.966 38.7825ZM146.02 41.6948C148.175 41.6948 149.252 40.7811 149.252 38.9538C149.252 37.6404 148.742 36.584 147.721 35.7846C146.757 34.9851 145.34 34.5854 143.468 34.5854C141.654 34.5854 139.84 35.3563 138.025 36.8981C136.211 38.3828 135.303 39.9817 135.303 41.6948H146.02Z" fill="#1976D2"/>
<path d="M169.433 8.28936C169.433 6.97598 169.461 6.00523 169.518 5.37709C169.632 4.69185 169.887 3.92096 170.284 3.0644C170.737 2.20785 171.503 1.60827 172.58 1.26564C173.657 0.923018 175.103 0.751709 176.918 0.751709C178.675 0.751709 180.065 0.951569 181.085 1.35129C182.163 1.69391 182.928 2.2935 183.382 3.15005C183.835 3.9495 184.091 4.69185 184.147 5.37709C184.261 6.06234 184.317 7.06165 184.317 8.37503V48.0333C184.317 50.0891 184.487 51.4024 184.828 51.9735C185.168 52.4874 186.103 52.7444 187.634 52.7444C188.428 52.7444 189.024 52.8015 189.42 52.9157C189.817 52.9728 190.299 53.2012 190.866 53.6009C191.49 54.0006 191.915 54.7144 192.142 55.7423C192.426 56.7131 192.567 58.0264 192.567 59.6824C192.567 61.4526 192.426 62.8802 192.142 63.9652C191.915 65.0502 191.49 65.8211 190.866 66.2779C190.299 66.6776 189.789 66.9346 189.335 67.0488C188.939 67.1059 188.343 67.1344 187.549 67.1344C184.544 67.1344 182.134 67.0202 180.32 66.7918C178.505 66.5634 176.804 66.1351 175.217 65.507C173.686 64.8217 172.523 63.7939 171.73 62.4234C170.992 61.0529 170.425 59.3113 170.028 57.1984C169.632 55.0856 169.433 52.3732 169.433 49.0612V8.28936Z" fill="#1976D2"/>
<path d="M233.832 0.922974C235.59 0.922974 237.007 1.09428 238.085 1.43691C239.162 1.77953 239.899 2.37911 240.296 3.23566C240.75 4.09222 241.005 4.86311 241.062 5.54835C241.175 6.17649 241.232 7.14725 241.232 8.46063V59.5968C241.232 60.9102 241.175 61.9095 241.062 62.5947C241.005 63.2229 240.75 63.9652 240.296 64.8218C239.843 65.6212 239.077 66.1922 238 66.5349C236.922 66.8775 235.476 67.0488 233.662 67.0488C229.353 67.0488 226.971 65.6498 226.518 62.8517C224.136 65.5927 220.819 66.9631 216.566 66.9631C211.463 66.9631 206.814 64.7361 202.618 60.282C198.422 55.7709 196.324 50.4602 196.324 44.3502C196.324 38.5256 198.422 33.3578 202.618 28.8466C206.87 24.3354 211.52 22.0798 216.566 22.0798C220.762 22.0798 224.023 23.5074 226.348 26.3626V8.37497C226.348 7.0616 226.376 6.09084 226.433 5.4627C226.546 4.77746 226.801 4.03511 227.198 3.23566C227.652 2.37911 228.417 1.77953 229.494 1.43691C230.572 1.09428 232.018 0.922974 233.832 0.922974ZM213.42 49.7464C214.894 51.2882 216.68 52.0591 218.778 52.0591C220.876 52.0591 222.605 51.2882 223.966 49.7464C225.384 48.2047 226.092 46.4916 226.092 44.6071C226.092 42.7798 225.412 41.0667 224.051 39.4678C222.747 37.8689 220.961 37.0695 218.693 37.0695C216.425 37.0695 214.61 37.8689 213.249 39.4678C211.889 41.0096 211.208 42.7227 211.208 44.6071C211.208 46.4916 211.945 48.2047 213.42 49.7464Z" fill="#03A9F4"/>
<path d="M282.198 27.3048C282.198 29.7603 281.659 32.073 280.582 34.2429C279.504 36.4128 277.945 37.4978 275.904 37.4978C274.883 37.4978 273.891 37.2694 272.927 36.8125C272.02 36.3557 271.084 36.1273 270.12 36.1273C268.022 36.1273 266.293 36.6698 264.932 37.7547C263.628 38.8397 262.976 40.1531 262.976 41.6949V59.6825C262.976 60.9958 262.919 61.9952 262.806 62.6804C262.749 63.3085 262.494 64.0509 262.04 64.9074C261.586 65.7069 260.821 66.2779 259.744 66.6205C258.666 66.9632 257.22 67.1345 255.406 67.1345C253.988 67.1345 252.769 66.9917 251.749 66.7062C250.785 66.4207 250.048 66.0781 249.537 65.6783C249.084 65.2786 248.715 64.7076 248.432 63.9652C248.205 63.1658 248.063 62.5091 248.006 61.9952C248.006 61.4241 248.006 60.5961 248.006 59.5112V29.4462C248.006 28.1328 248.035 27.1621 248.091 26.5339C248.205 25.8487 248.46 25.1063 248.857 24.3069C249.311 23.4503 250.076 22.8507 251.153 22.5081C252.231 22.1655 253.677 21.9942 255.491 21.9942C257.192 21.9942 258.581 22.1655 259.659 22.5081C260.736 22.8507 261.473 23.3361 261.87 23.9643C262.267 24.5353 262.522 25.0207 262.635 25.4204C262.749 25.8201 262.806 26.277 262.806 26.7909C263.089 26.3912 263.486 25.9058 263.996 25.3347C264.563 24.7637 265.726 23.9928 267.483 23.0221C269.241 22.0513 271.027 21.5659 272.842 21.5659C273.692 21.5659 274.571 21.6516 275.478 21.8229C276.386 21.9371 277.378 22.1655 278.455 22.5081C279.533 22.8507 280.411 23.4503 281.092 24.3069C281.829 25.1063 282.198 26.1056 282.198 27.3048Z" fill="#03A9F4"/>
<path d="M286.879 29.5318C286.879 28.2184 286.907 27.2477 286.964 26.6196C287.077 25.9343 287.333 25.192 287.73 24.3925C288.183 23.536 288.949 22.9364 290.026 22.5938C291.103 22.2511 292.549 22.0798 294.364 22.0798C295.781 22.0798 296.972 22.2226 297.936 22.5081C298.956 22.7936 299.694 23.1362 300.147 23.536C300.658 23.9357 301.026 24.5353 301.253 25.3347C301.536 26.0771 301.678 26.7338 301.678 27.3048C301.735 27.8187 301.763 28.6182 301.763 29.7031V59.6824C301.763 60.9958 301.707 61.9951 301.593 62.6804C301.536 63.3085 301.281 64.0509 300.828 64.9074C300.431 65.7069 299.694 66.2779 298.616 66.6205C297.539 66.9631 296.093 67.1344 294.279 67.1344C292.521 67.1344 291.103 66.9631 290.026 66.6205C288.949 66.2779 288.183 65.6783 287.73 64.8218C287.333 63.9652 287.077 63.2229 286.964 62.5947C286.907 61.9666 286.879 60.9673 286.879 59.5968V29.5318ZM294.279 15.9127C292.521 15.9127 291.103 15.7413 290.026 15.3987C288.949 15.0561 288.183 14.4565 287.73 13.6C287.333 12.7434 287.077 12.0011 286.964 11.3729C286.907 10.6877 286.879 9.68835 286.879 8.37497C286.879 7.0616 286.907 6.09084 286.964 5.4627C287.077 4.77746 287.333 4.03511 287.73 3.23566C288.183 2.37911 288.949 1.77953 290.026 1.43691C291.103 1.09428 292.549 0.922974 294.364 0.922974C296.121 0.922974 297.539 1.09428 298.616 1.43691C299.694 1.77953 300.431 2.37911 300.828 3.23566C301.281 4.09222 301.536 4.86311 301.593 5.54835C301.707 6.17649 301.763 7.14725 301.763 8.46063C301.763 9.77401 301.707 10.7733 301.593 11.4586C301.536 12.0867 301.281 12.8291 300.828 13.6856C300.431 14.4851 299.694 15.0561 298.616 15.3987C297.539 15.7413 296.093 15.9127 294.279 15.9127Z" fill="#03A9F4"/>
<path d="M353.804 23.0224C356.752 24.7926 358.226 26.677 358.226 28.6756C358.226 29.8177 357.659 31.388 356.525 33.3866L338.919 63.7942C338.749 64.0797 338.494 64.4509 338.154 64.9077C337.814 65.3075 337.077 65.8499 335.943 66.5352C334.865 67.2204 333.731 67.563 332.54 67.563C331.293 67.563 330.102 67.2775 328.968 66.7065C327.891 66.0784 327.125 65.4502 326.672 64.8221L325.906 63.8799L308.215 33.3866C307.081 31.5022 306.514 29.9604 306.514 28.7612C306.514 26.7055 307.989 24.7926 310.937 23.0224C313.092 21.7661 314.821 21.1379 316.125 21.1379C317.316 21.1379 318.252 21.5377 318.932 22.3371C319.669 23.0795 320.435 24.2215 321.228 25.7633L332.37 47.3484L343.512 25.7633C344.136 24.6784 344.59 23.9075 344.873 23.4506C345.213 22.9367 345.724 22.4513 346.404 21.9945C347.084 21.4806 347.85 21.2236 348.7 21.2236C350.118 21.2236 351.819 21.8232 353.804 23.0224Z" fill="#03A9F4"/>
<path d="M403.675 38.7825C403.675 42.5513 402.796 45.2923 401.039 47.0054C399.338 48.6614 397.438 49.4894 395.34 49.4894H375.183C375.183 51.0883 376.118 52.4302 377.989 53.5152C379.86 54.6002 381.873 55.1426 384.028 55.1426C385.559 55.1426 387.005 55.0284 388.366 54.8C389.727 54.5716 390.719 54.3432 391.343 54.1148L392.278 53.7722C393.639 53.144 394.773 52.8299 395.68 52.8299C397.495 52.8299 399.054 54.1148 400.358 56.6844C401.095 58.2262 401.464 59.5396 401.464 60.6246C401.464 65.7068 395.425 68.2479 383.348 68.2479C379.152 68.2479 375.409 67.5341 372.121 66.1065C368.889 64.6218 366.365 62.7088 364.551 60.3676C362.737 57.9693 361.376 55.4567 360.468 52.8299C359.618 50.2032 359.193 47.5193 359.193 44.7784C359.193 37.5833 361.489 31.8444 366.082 27.5617C370.731 23.2218 376.515 21.0519 383.433 21.0519C386.211 21.0519 388.763 21.4516 391.087 22.2511C393.412 22.9934 395.34 23.9927 396.871 25.249C398.402 26.4482 399.678 27.8472 400.698 29.4461C401.776 31.045 402.541 32.6439 402.995 34.2428C403.448 35.7846 403.675 37.2978 403.675 38.7825ZM385.729 41.6948C387.884 41.6948 388.961 40.7811 388.961 38.9538C388.961 37.6404 388.451 36.584 387.43 35.7846C386.466 34.9851 385.049 34.5854 383.177 34.5854C381.363 34.5854 379.549 35.3563 377.734 36.8981C375.92 38.3828 375.012 39.9817 375.012 41.6948H385.729Z" fill="#03A9F4"/>
</g>
<defs>
<clipPath id="clip0_15_811">
<rect width="404" height="69" fill="white"/>
</clipPath>
</defs>
</svg>
